<?xml version="1.0" standalone="no"?><!DOCTYPE svg PUBLIC "-//W3C//DTD SVG 1.1//EN" "http://www.w3.org/Graphics/SVG/1.1/DTD/svg11.dtd"><svg t="1730088758587" class="icon" viewBox="0 0 1024 1024" version="1.1" xmlns="http://www.w3.org/2000/svg" p-id="8485" xmlns:xlink="http://www.w3.org/1999/xlink" width="200" height="200"><path d="M512 1024A512 512 0 1 1 512 0a512 512 0 0 1 0 1024z m60.245333-456.192v-337.066667A60.416 60.416 0 0 0 512 170.666667a59.989333 59.989333 0 0 0-60.245333 60.074666v361.984a59.306667 59.306667 0 0 0 17.237333 42.24l171.264 171.264a59.818667 59.818667 0 0 0 84.821333-0.426666 60.245333 60.245333 0 0 0 0.426667-84.821334L572.245333 567.808z" fill="#9571E9" p-id="8486"></path></svg>